<svg width="1512" height="550" viewBox="0 0 1512 550" fill="none" xmlns="http://www.w3.org/2000/svg">
<rect width="1512" height="550" fill="#EBFEE4"/>
<path d="M851.771 222.313C851.77 222.317 851.77 222.321 851.77 222.325C851.77 222.332 851.771 222.339 851.772 222.346L856.864 244.808L850.747 250.621L834.113 261.215C834.07 261.243 834.056 261.3 834.083 261.344L845.624 280.348C845.628 280.354 845.632 280.359 845.637 280.364L852.469 287.555C852.476 287.562 852.484 287.568 852.494 287.573L865.352 294.25C865.388 294.268 865.432 294.262 865.461 294.234L873.25 286.834L884.676 306.338L877.197 313.444L870.349 319.951C870.325 319.974 870.315 320.008 870.323 320.041L874.244 336.508L876.265 348.918C876.268 348.937 876.276 348.954 876.289 348.968L885.399 358.555C885.418 358.576 885.447 358.587 885.475 358.584L894.487 357.815L907.647 364.821C907.677 364.837 907.712 364.836 907.741 364.818L923.355 355.195C923.379 355.18 923.396 355.155 923.399 355.126C923.403 355.098 923.394 355.07 923.374 355.049L918.234 349.639L932.194 336.375L943.686 330.662C943.695 330.658 943.703 330.652 943.71 330.645C943.717 330.638 943.724 330.63 943.728 330.62L953.931 310.502C953.944 310.476 953.945 310.445 953.933 310.419L945.701 292.847L940.799 263.837L965.415 274.086L973.535 282.632C973.571 282.669 973.63 282.671 973.668 282.635L985.652 271.248C985.69 271.212 985.692 271.152 985.656 271.115L974.92 259.815C974.916 259.812 974.913 259.808 974.909 259.805L958.285 247.084L964.711 240.979L985.597 221.133C985.609 221.122 985.618 221.108 985.623 221.092L990.005 206.504C990.017 206.463 990 206.419 989.964 206.397C989.927 206.374 989.88 206.379 989.849 206.409L982.348 213.536L967.126 211.819L960.934 195.114L983.99 190.716C984.038 190.707 984.071 190.661 984.066 190.612L981.895 171.226L994.491 159.259L1004.28 162.138L995.529 179.519C995.518 179.542 995.516 179.569 995.525 179.593C995.529 179.607 995.537 179.619 995.548 179.629C995.555 179.637 995.564 179.643 995.574 179.647L1002.51 182.831C1002.54 182.848 1002.59 182.841 1002.61 182.814L1010.15 175.657C1010.15 175.653 1010.15 175.65 1010.16 175.646C1010.17 175.633 1010.17 175.618 1010.17 175.602L1014.66 143.978C1014.66 143.967 1014.66 143.956 1014.66 143.945L1011.39 128.159C1011.38 128.137 1011.37 128.118 1011.35 128.104L993.989 114.631C993.965 114.612 993.933 114.606 993.903 114.615L977.777 119.536L971.554 116.391L960.111 107.088L952.993 99.5963L955.977 87.0273C955.981 87.0105 955.98 86.993 955.975 86.9766L951.642 73.5022C951.635 73.4815 951.622 73.4637 951.603 73.4519L941.416 66.8437C941.406 66.8378 941.396 66.8336 941.386 66.8311L927.106 63.4592L927.106 63.4587L927.096 63.4574L920.436 62.619C920.402 62.6147 920.368 62.6291 920.348 62.6567C920.328 62.6842 920.324 62.7206 920.338 62.7518L925.687 74.5211L919.573 80.3308L912.04 87.4882L906.954 92.3209L892.186 84.2906C892.162 84.2775 892.134 84.2755 892.108 84.285C892.083 84.2945 892.062 84.3146 892.053 84.3401L881.662 111.804C881.649 111.838 881.657 111.876 881.682 111.902L887.483 118.008L866.439 145.802C866.43 145.815 866.424 145.83 866.421 145.845L863.992 162.481L857.781 183.363L857.78 183.363L857.778 183.374L853.876 205.324L853.876 205.324L853.875 205.329L851.771 222.313Z" fill="#EFCA08" stroke="black" stroke-width="0.188928" stroke-linejoin="round"/>
<path d="M872.062 227.92C871.099 227.896 870.241 227.749 869.488 227.48C868.735 227.211 868.082 226.838 867.527 226.358L868.066 225.25C868.455 225.554 868.845 225.814 869.236 226.028C869.639 226.231 870.072 226.389 870.534 226.503C870.996 226.606 871.516 226.665 872.094 226.679C873.103 226.705 873.855 226.537 874.352 226.176C874.849 225.814 875.105 225.322 875.121 224.699C875.135 224.166 874.975 223.754 874.643 223.462C874.31 223.17 873.721 222.928 872.875 222.736L871.1 222.334C870.006 222.079 869.194 221.69 868.663 221.166C868.144 220.642 867.895 219.944 867.917 219.072C867.936 218.358 868.133 217.739 868.509 217.216C868.897 216.693 869.428 216.292 870.105 216.015C870.781 215.737 871.561 215.61 872.445 215.632C873.294 215.654 874.067 215.804 874.763 216.083C875.46 216.35 876.051 216.734 876.537 217.234L876.016 218.309C875.496 217.82 874.943 217.465 874.359 217.246C873.787 217.016 873.132 216.892 872.396 216.873C871.467 216.849 870.725 217.034 870.17 217.428C869.628 217.811 869.348 218.348 869.33 219.04C869.316 219.595 869.475 220.035 869.806 220.361C870.138 220.676 870.693 220.923 871.471 221.101L873.264 221.504C874.414 221.772 875.255 222.151 875.786 222.64C876.318 223.13 876.573 223.806 876.551 224.667C876.534 225.324 876.338 225.903 875.962 226.404C875.598 226.905 875.083 227.289 874.419 227.555C873.754 227.822 872.969 227.943 872.062 227.92ZM881.837 228.17C881.078 228.151 880.419 227.958 879.862 227.592C879.304 227.215 878.875 226.694 878.575 226.029C878.286 225.363 878.153 224.572 878.176 223.654C878.2 222.725 878.373 221.936 878.696 221.286C879.03 220.637 879.485 220.144 880.061 219.807C880.636 219.47 881.304 219.312 882.063 219.331C882.834 219.351 883.491 219.566 884.037 219.977C884.593 220.377 884.954 220.913 885.118 221.586L884.914 221.581L885.153 219.563L886.479 219.597C886.436 219.925 886.394 220.258 886.351 220.597C886.32 220.925 886.3 221.248 886.292 221.565L886.124 228.127L884.748 228.091L884.799 226.086L884.986 226.09C884.787 226.754 884.4 227.272 883.824 227.643C883.247 228.013 882.585 228.189 881.837 228.17ZM882.138 227.055C882.954 227.076 883.607 226.815 884.097 226.272C884.587 225.717 884.846 224.902 884.874 223.825C884.901 222.737 884.684 221.91 884.223 221.342C883.761 220.764 883.123 220.464 882.307 220.443C881.502 220.422 880.849 220.689 880.347 221.243C879.857 221.786 879.598 222.602 879.57 223.69C879.543 224.766 879.76 225.594 880.221 226.173C880.694 226.74 881.333 227.035 882.138 227.055ZM890.981 228.251L888.038 219.637L889.5 219.674L891.942 227.255L891.5 227.243L894.412 219.8L895.602 219.83L898.078 227.412L897.653 227.401L900.497 219.955L901.891 219.991L898.494 228.443L897.168 228.409L894.61 220.706L895.29 220.724L892.324 228.285L890.981 228.251ZM906.554 228.802C905.794 228.783 905.136 228.59 904.578 228.224C904.021 227.847 903.592 227.326 903.292 226.66C903.003 225.995 902.87 225.204 902.893 224.286C902.917 223.357 903.09 222.567 903.413 221.918C903.747 221.269 904.202 220.776 904.777 220.439C905.353 220.102 906.02 219.944 906.78 219.963C907.55 219.983 908.208 220.198 908.753 220.609C909.31 221.009 909.67 221.545 909.835 222.218L909.631 222.213L909.869 220.195L911.195 220.229C911.153 220.557 911.11 220.89 911.068 221.229C911.037 221.557 911.017 221.88 911.009 222.197L910.841 228.758L909.464 228.723L909.516 226.718L909.703 226.722C909.504 227.386 909.117 227.904 908.54 228.274C907.964 228.645 907.302 228.821 906.554 228.802ZM906.854 227.687C907.67 227.708 908.323 227.447 908.813 226.904C909.304 226.349 909.563 225.534 909.59 224.457C909.618 223.369 909.401 222.542 908.939 221.974C908.478 221.396 907.839 221.096 907.023 221.075C906.219 221.054 905.566 221.321 905.064 221.875C904.574 222.418 904.315 223.234 904.287 224.322C904.259 225.398 904.476 226.226 904.938 226.805C905.411 227.372 906.05 227.666 906.854 227.687ZM913.503 228.827L913.671 222.265C913.679 221.948 913.67 221.625 913.645 221.295C913.631 220.955 913.611 220.62 913.585 220.29L914.911 220.324L915.033 222.198L914.829 222.193C915.095 221.542 915.505 221.054 916.057 220.727C916.622 220.39 917.266 220.231 917.992 220.25C919 220.275 919.753 220.567 920.249 221.124C920.756 221.67 920.995 222.521 920.966 223.676L920.829 229.014L919.452 228.979L919.587 223.726C919.607 222.922 919.458 222.334 919.139 221.963C918.831 221.581 918.337 221.381 917.657 221.364C916.864 221.343 916.229 221.571 915.752 222.046C915.275 222.522 915.026 223.167 915.005 223.983L914.88 228.862L913.503 228.827ZM926.485 229.311C925.646 229.29 925.012 229.036 924.582 228.548C924.153 228.05 923.95 227.313 923.975 226.339L924.096 221.63L922.43 221.588L922.457 220.517L924.123 220.559L924.182 218.231L925.569 217.875L925.5 220.595L927.947 220.657L927.92 221.728L925.472 221.666L925.356 226.221C925.339 226.901 925.439 227.391 925.659 227.692C925.889 227.981 926.237 228.132 926.702 228.143C926.917 228.149 927.11 228.137 927.281 228.107C927.452 228.066 927.606 228.019 927.744 227.966L927.714 229.122C927.554 229.186 927.36 229.232 927.132 229.26C926.916 229.3 926.7 229.317 926.485 229.311ZM931.783 229.294L928.839 220.68L930.301 220.717L932.744 228.298L932.302 228.287L935.214 220.843L936.403 220.873L938.88 228.455L938.455 228.444L941.299 220.999L942.693 221.034L939.296 229.486L937.97 229.452L935.412 221.75L936.091 221.767L933.126 229.328L931.783 229.294ZM947.355 229.845C946.596 229.826 945.938 229.633 945.38 229.267C944.823 228.89 944.394 228.369 944.093 227.704C943.804 227.038 943.671 226.247 943.695 225.329C943.719 224.4 943.892 223.611 944.215 222.961C944.549 222.312 945.004 221.819 945.579 221.482C946.155 221.145 946.822 220.987 947.581 221.006C948.352 221.026 949.01 221.241 949.555 221.652C950.112 222.052 950.472 222.588 950.636 223.261L950.432 223.256L950.671 221.238L951.997 221.272C951.954 221.6 951.912 221.933 951.869 222.272C951.838 222.6 951.819 222.923 951.811 223.24L951.643 229.802L950.266 229.766L950.317 227.761L950.504 227.765C950.306 228.429 949.918 228.947 949.342 229.318C948.765 229.688 948.103 229.864 947.355 229.845ZM947.656 228.73C948.472 228.751 949.125 228.49 949.615 227.947C950.106 227.392 950.364 226.577 950.392 225.5C950.42 224.412 950.203 223.585 949.741 223.017C949.28 222.439 948.641 222.139 947.825 222.118C947.02 222.097 946.367 222.364 945.866 222.918C945.375 223.461 945.116 224.277 945.089 225.365C945.061 226.441 945.278 227.269 945.74 227.848C946.213 228.415 946.851 228.71 947.656 228.73ZM957.53 230.105C956.783 230.086 956.13 229.894 955.572 229.528C955.015 229.151 954.586 228.63 954.285 227.964C953.996 227.299 953.863 226.508 953.887 225.59C953.911 224.66 954.084 223.871 954.407 223.222C954.741 222.573 955.196 222.08 955.771 221.743C956.347 221.406 957.009 221.247 957.756 221.266C958.527 221.286 959.185 221.496 959.73 221.895C960.287 222.295 960.653 222.826 960.829 223.488L960.625 223.483L960.778 217.516L962.155 217.552L961.835 230.062L960.475 230.027L960.527 227.988L960.714 227.992C960.515 228.668 960.128 229.196 959.551 229.579C958.975 229.949 958.301 230.125 957.53 230.105ZM957.848 228.991C958.653 229.011 959.306 228.75 959.807 228.207C960.309 227.653 960.574 226.838 960.601 225.761C960.629 224.673 960.406 223.846 959.933 223.278C959.46 222.699 958.822 222.399 958.017 222.379C957.213 222.358 956.559 222.625 956.058 223.179C955.568 223.722 955.309 224.537 955.281 225.625C955.253 226.702 955.47 227.53 955.932 228.108C956.405 228.676 957.044 228.97 957.848 228.991ZM964.497 230.13L964.715 221.597L966.092 221.632L965.874 230.165L964.497 230.13ZM964.595 219.655L964.634 218.108L966.334 218.152L966.294 219.699L964.595 219.655Z" fill="black"/>
<path d="M1020.29 101.605L1009.92 177.798L1015.45 198.182L1009.2 215.482L1022.48 230.812L1042.77 245.035L1065.63 237.651L1064.51 177.81L1088.29 159.43L1098.14 132.923L1070.08 100.525L1078.31 88.6981L1060.09 55.2468L1040.83 49.2453L1023.02 62.7363L1015.2 81.4007L1020.29 101.605Z" fill="#E6AACE" stroke="black" stroke-width="0.267974"/>
<path d="M1020.74 136.438L1029.84 126.647L1031.02 127.056L1032.2 140.406L1030.79 139.918L1030.49 136.124L1030.97 136.678L1023.91 134.231L1024.68 134.114L1022.13 136.92L1020.74 136.438ZM1029.87 128.403L1025.06 133.712L1024.77 133.281L1030.87 135.393L1030.47 135.586L1029.91 128.414L1029.87 128.403ZM1033.79 140.959L1035.98 134.632C1036.09 134.326 1036.18 134.009 1036.26 133.68C1036.35 133.345 1036.44 133.013 1036.51 132.685L1037.79 133.128L1037.33 134.988L1037.13 134.92C1037.57 134.372 1038.08 134.011 1038.67 133.835C1039.26 133.663 1039.9 133.694 1040.58 133.928C1041.27 134.167 1041.77 134.524 1042.08 134.999C1042.4 135.479 1042.52 136.089 1042.44 136.83L1042.19 136.745C1042.62 136.194 1043.15 135.829 1043.8 135.65C1044.45 135.471 1045.13 135.503 1045.82 135.745C1046.73 136.06 1047.32 136.558 1047.6 137.242C1047.88 137.914 1047.83 138.808 1047.44 139.923L1045.66 145.07L1044.33 144.61L1046.09 139.545C1046.36 138.769 1046.41 138.159 1046.26 137.714C1046.11 137.259 1045.74 136.928 1045.14 136.719C1044.45 136.481 1043.82 136.532 1043.25 136.873C1042.69 137.206 1042.28 137.772 1042 138.57L1040.38 143.242L1039.06 142.782L1040.81 137.717C1041.08 136.941 1041.14 136.331 1040.98 135.886C1040.84 135.431 1040.46 135.099 1039.86 134.891C1039.17 134.653 1038.55 134.706 1037.99 135.05C1037.43 135.384 1037.02 135.95 1036.74 136.747L1035.12 141.419L1033.79 140.959ZM1052.26 147.522C1051.52 147.265 1050.95 146.857 1050.54 146.3C1050.14 145.732 1049.96 145.088 1050 144.368L1050.18 144.431L1049.5 146.398L1048.18 145.944L1052.36 133.879L1053.69 134.339L1051.7 140.093L1051.5 140.025C1051.91 139.455 1052.44 139.077 1053.11 138.891C1053.77 138.705 1054.47 138.741 1055.22 138.998C1055.96 139.256 1056.54 139.652 1056.95 140.187C1057.38 140.715 1057.63 141.347 1057.71 142.083C1057.8 142.823 1057.69 143.635 1057.38 144.521C1057.07 145.406 1056.66 146.112 1056.13 146.64C1055.61 147.168 1055.01 147.512 1054.34 147.672C1053.69 147.826 1053 147.776 1052.26 147.522ZM1052.36 146.344C1053.14 146.612 1053.85 146.56 1054.51 146.188C1055.16 145.815 1055.67 145.104 1056.03 144.055C1056.4 143.006 1056.44 142.132 1056.15 141.434C1055.87 140.725 1055.34 140.236 1054.57 139.967C1053.79 139.698 1053.08 139.756 1052.42 140.14C1051.77 140.516 1051.27 141.229 1050.9 142.278C1050.54 143.316 1050.5 144.188 1050.77 144.893C1051.05 145.591 1051.58 146.075 1052.36 146.344ZM1061.34 150.665C1060.55 150.393 1059.92 149.985 1059.45 149.442C1058.99 148.891 1058.71 148.244 1058.62 147.501C1058.52 146.746 1058.63 145.932 1058.93 145.058C1059.24 144.173 1059.66 143.468 1060.19 142.944C1060.73 142.42 1061.35 142.089 1062.04 141.951C1062.76 141.805 1063.5 141.869 1064.29 142.141C1065.09 142.418 1065.72 142.831 1066.17 143.381C1066.65 143.925 1066.93 144.568 1067.03 145.311C1067.14 146.059 1067.04 146.875 1066.73 147.76C1066.43 148.635 1066 149.337 1065.45 149.868C1064.91 150.392 1064.29 150.727 1063.58 150.872C1062.88 151.011 1062.14 150.942 1061.34 150.665ZM1061.71 149.583C1062.5 149.856 1063.22 149.804 1063.86 149.427C1064.51 149.04 1065.01 148.327 1065.37 147.289C1065.74 146.24 1065.77 145.366 1065.49 144.668C1065.22 143.963 1064.7 143.476 1063.92 143.207C1063.15 142.938 1062.43 142.998 1061.79 143.385C1061.14 143.761 1060.64 144.474 1060.27 145.523C1059.91 146.561 1059.87 147.433 1060.14 148.139C1060.41 148.833 1060.94 149.315 1061.71 149.583ZM1067.38 152.592L1071.56 140.527L1072.88 140.987L1068.71 153.052L1067.38 152.592ZM1071.28 153.945L1074.13 145.716L1075.46 146.176L1072.61 154.404L1071.28 153.945ZM1074.62 143.79L1075.13 142.299L1076.77 142.866L1076.26 144.358L1074.62 143.79Z" fill="black"/>
<path d="M843.872 260.541L843.016 267.869L837.315 268.726L834.712 265.987L827.795 262.135L823.48 261.022L820.056 264.276L816.495 272.871L810.674 278.402L803.826 284.908L801.943 293.212L802.047 302.235L798.931 306.499L793.401 313.707L791.21 321.001L789.978 329.99L785.595 331.549L781.914 331.789L778.336 328.022L779.157 322.03L771.178 320.489L763.216 318.281L760.716 311.535L755.802 307.735L754.364 311.707L751.557 316.981L750.735 322.973L748.338 325.251L744.4 322.477L742.346 324.429L736.49 318.266L739.948 313.677L741.078 308.695L740.495 305.339L738.218 302.942L723.51 303.234L720.582 300.153L726.403 294.622L725.204 289.246L729.313 285.342L740.442 281.283L745.989 273.407L745.492 266.712L742.564 263.631L737.358 258.152L736.57 249.78L740.987 246.886L744.411 243.633L742.459 241.578L739.634 234.49L742.082 230.21L748.297 235.38L747.8 228.685L751.96 222.778L749.426 217.368L744.221 211.889L737.646 207.712L729.393 203.826L724.736 203.039L722.887 210.008L725.49 212.747L724.018 218.055L718.676 217.918L712.683 217.097L708.043 215.642L704.464 211.875L702.598 206.482L709.103 200.301L709.308 192.288L706.706 189.549L704.428 187.152L700.798 185.388L699.548 182.016L702.664 177.752L701.739 174.722L706.807 172.513L710.574 168.934L708.073 162.188L713.552 156.983L713.021 151.624L711.531 144.57L713.037 137.927L718.361 125.701L725.672 127.225L735.328 128.474L738.308 129.552L743.067 126.333L750.189 122.172L754.058 114.587L755.873 108.954L753.989 104.228L747.962 104.742L743.733 100.291L742.859 95.2575L743.698 88.5971L746.728 87.6723L755.101 86.8841L765.151 85.8047L775.321 80.0511L786.278 69.6404L790.626 69.4175L808.158 63.1839L814.904 60.6836L820.999 57.4986L817.575 60.7519L816.103 66.0597L810.385 67.584L807.303 70.512L811.207 74.6208L812.714 81.0071L816.481 77.4284L819.015 82.8386L821.618 85.5779L822.149 90.9369L818.451 91.8446L815.027 95.0979L808.298 96.9304L803.504 101.485L796.416 104.311L800.645 108.762L783.867 111.674L791.828 113.882L796.811 115.012L796.349 120.011L801.588 124.154L802.736 131.534L803.798 142.252L809.157 141.72L815.475 142.884L819.379 146.993L824.515 142.113L821.262 138.689L819.584 138.98L817.53 140.932L814.893 139.528L812.633 136.464L811.228 126.071L817.391 120.215L817.289 124.222L818.179 128.587L822.22 127.354L823.983 123.724L827.699 122.149L830.095 119.872L836.499 117.697L837.235 115.043L834.957 112.646L835.368 109.65L842.833 105.163L848.311 99.9579L851.804 94.0336L858.224 91.191L865.706 86.0368L873.821 82.2352L881.354 75.0778L883.306 77.1323L882.793 84.135L887.587 79.5803L892.312 77.6966L896.541 82.1479L895.069 87.4557L895.481 97.4889L890.995 103.054L887.435 111.649L891.288 117.761L891.802 123.788L882.763 137.589L870.659 153.649L868.606 181.66L859.995 191.797L857.736 201.762L859.483 211.829L854.57 221.058L857.293 232.153L860.05 241.912L859.109 252.579L851.353 255.387L843.872 260.541Z" fill="#FFF9A5" stroke="black" stroke-width="0.188928"/>
<path d="M776.32 196.059L776.627 184.075L778.038 184.111L777.899 189.551L777.933 189.552L783.817 184.259L785.619 184.305L778.848 190.323L778.884 189.61L785.788 196.301L783.935 196.253L777.909 190.452L777.875 190.452L777.731 196.095L776.32 196.059ZM789.779 196.556C788.771 196.53 788.013 196.233 787.506 195.664C787.01 195.096 786.777 194.24 786.806 193.095L786.942 187.792L788.318 187.827L788.184 193.096C788.164 193.878 788.308 194.46 788.615 194.842C788.923 195.213 789.412 195.407 790.08 195.424C790.828 195.443 791.435 195.215 791.901 194.739C792.367 194.264 792.61 193.618 792.631 192.802L792.755 187.94L794.132 187.976L793.914 196.509L792.571 196.474L792.62 194.554L792.841 194.559C792.586 195.21 792.188 195.71 791.646 196.059C791.115 196.409 790.493 196.574 789.779 196.556ZM799.811 196.812C799.063 196.793 798.41 196.601 797.852 196.235C797.295 195.858 796.866 195.337 796.566 194.671C796.276 194.006 796.143 193.215 796.167 192.297C796.191 191.368 796.364 190.578 796.687 189.929C797.021 189.28 797.476 188.787 798.051 188.45C798.627 188.113 799.289 187.954 800.036 187.974C800.807 187.993 801.465 188.203 802.01 188.602C802.567 189.002 802.934 189.533 803.109 190.195L802.905 190.19L803.058 184.224L804.435 184.259L804.115 196.769L802.755 196.735L802.807 194.695L802.994 194.7C802.796 195.375 802.408 195.904 801.831 196.286C801.255 196.657 800.581 196.832 799.811 196.812ZM800.128 195.698C800.933 195.719 801.586 195.457 802.087 194.915C802.589 194.36 802.854 193.545 802.881 192.469C802.909 191.381 802.686 190.553 802.213 189.985C801.74 189.406 801.102 189.106 800.297 189.086C799.493 189.065 798.839 189.332 798.338 189.886C797.848 190.429 797.589 191.245 797.561 192.333C797.533 193.409 797.75 194.237 798.212 194.816C798.685 195.383 799.324 195.677 800.128 195.698ZM810.02 197.073C809.26 197.054 808.602 196.861 808.044 196.496C807.487 196.119 807.058 195.597 806.758 194.932C806.468 194.267 806.336 193.475 806.359 192.558C806.383 191.628 806.556 190.839 806.879 190.19C807.213 189.54 807.668 189.047 808.243 188.711C808.819 188.374 809.486 188.215 810.246 188.235C811.016 188.254 811.674 188.469 812.219 188.88C812.776 189.28 813.136 189.817 813.301 190.49L813.097 190.485L813.335 188.467L814.661 188.5C814.619 188.828 814.576 189.162 814.534 189.501C814.502 189.829 814.483 190.151 814.475 190.469L814.307 197.03L812.93 196.995L812.981 194.989L813.168 194.994C812.97 195.658 812.583 196.175 812.006 196.546C811.43 196.917 810.768 197.093 810.02 197.073ZM810.32 195.959C811.136 195.979 811.789 195.718 812.279 195.175C812.77 194.621 813.029 193.805 813.056 192.729C813.084 191.641 812.867 190.813 812.405 190.246C811.944 189.667 811.305 189.367 810.489 189.346C809.685 189.326 809.032 189.593 808.53 190.147C808.04 190.69 807.781 191.505 807.753 192.593C807.725 193.67 807.942 194.497 808.404 195.076C808.877 195.644 809.516 195.938 810.32 195.959ZM816.969 197.098L817.289 184.588L818.666 184.623L818.346 197.133L816.969 197.098Z" fill="black"/>
<path d="M702.28 310.376L689.886 337.788L703.139 342.136L706.22 339.208L710.124 343.317L711.34 348.025L719.285 350.901L724.267 352.031L725.722 347.391L730.773 345.849L734.865 342.613L733.598 339.908L747.346 337.921L755.41 336.122L760.684 338.93L770.956 329.17L774.535 332.936L782.171 334.802L797.05 340.862L807.906 347.487L809.96 345.535L806.707 342.111L819.993 345.123L830.9 349.745L833.469 353.82L842.8 354.727L848.758 356.884L848.536 352.535L848.33 347.518L850.333 347.57L850.556 351.918L852.063 358.305L856.001 361.078L866.925 365.032L872.524 368.182L877.609 365.305L879.886 367.702L874.476 370.237L874.631 377.256L874.545 380.595L883.26 379.482L893.619 379.412L898.155 371.844L904.918 368.676L911.715 364.173L906.424 362.033L897.572 355.459L888.223 355.22L880.09 346.66L880.843 343.338L874.097 332.809L874.353 322.793L871.476 317.708L880.584 314.266L882.347 310.636L891.25 302.177L888.048 296.75L885.12 293.668L882.311 285.912L875.959 286.084L867.057 294.543L862.691 295.433L858.068 293.311L857.947 284.955L851.766 278.45L851.594 272.098L843.786 263.88L831.92 257.563L820.98 254.276L816.717 264.19L804.39 275.902L801.104 286.843L796.756 300.096L789.788 311.276L788.813 323.279L776.777 323.639L776.348 314.274L760.374 311.861L760.836 306.861L755.63 301.383L749.809 306.913L751.933 315.32L745.923 315.166L739.537 316.673L735.958 312.907L740.221 302.993L738.423 294.929L718.716 294.759L702.28 310.376Z" fill="#FCC8B2" stroke="black" stroke-width="0.188928"/>
<path d="M802.855 322.431L797.943 310.314L799.456 310.353L803.818 321.333L803.292 321.32L808.244 310.578L809.705 310.615L804.147 322.464L802.855 322.431ZM813.588 322.859C812.251 322.824 811.207 322.412 810.456 321.622C809.705 320.82 809.347 319.728 809.383 318.346C809.406 317.451 809.595 316.679 809.952 316.03C810.309 315.37 810.798 314.867 811.42 314.52C812.041 314.161 812.748 313.992 813.542 314.013C814.324 314.033 814.977 314.214 815.501 314.556C816.025 314.898 816.421 315.379 816.689 315.998C816.957 316.606 817.08 317.324 817.059 318.151L817.046 318.661L810.434 318.492L810.456 317.625L816.167 317.771L815.872 317.984C815.896 317.078 815.71 316.364 815.315 315.844C814.92 315.324 814.32 315.053 813.516 315.033C812.666 315.011 811.995 315.294 811.504 315.883C811.013 316.46 810.754 317.253 810.729 318.261L810.725 318.414C810.698 319.479 810.937 320.296 811.445 320.865C811.963 321.422 812.698 321.713 813.65 321.738C814.16 321.751 814.638 321.689 815.084 321.553C815.541 321.406 815.978 321.162 816.395 320.821L816.846 321.802C816.463 322.155 815.98 322.427 815.397 322.616C814.825 322.794 814.222 322.875 813.588 322.859ZM819.047 322.845L819.215 316.284C819.223 315.967 819.214 315.643 819.189 315.314C819.175 314.973 819.155 314.638 819.129 314.309L820.455 314.343L820.577 316.217L820.373 316.211C820.639 315.561 821.049 315.072 821.601 314.746C822.166 314.409 822.81 314.25 823.536 314.268C824.544 314.294 825.296 314.585 825.792 315.142C826.3 315.688 826.539 316.539 826.51 317.695L826.373 323.032L824.996 322.997L825.131 317.745C825.151 316.94 825.002 316.352 824.682 315.981C824.375 315.599 823.881 315.4 823.201 315.382C822.408 315.362 821.773 315.59 821.295 316.065C820.818 316.54 820.569 317.186 820.549 318.002L820.424 322.88L819.047 322.845ZM832.666 326.986C831.93 326.967 831.252 326.859 830.634 326.662C830.015 326.465 829.461 326.173 828.972 325.786L829.407 324.76C829.751 325.018 830.092 325.225 830.428 325.381C830.764 325.537 831.113 325.654 831.474 325.731C831.834 325.82 832.219 325.869 832.627 325.88C833.465 325.901 834.105 325.696 834.547 325.265C834.989 324.835 835.221 324.211 835.242 323.395L835.305 320.897L835.475 320.901C835.277 321.565 834.889 322.088 834.313 322.47C833.736 322.841 833.068 323.016 832.309 322.997C831.527 322.977 830.852 322.79 830.282 322.435C829.725 322.069 829.295 321.565 828.994 320.922C828.705 320.269 828.571 319.505 828.594 318.633C828.616 317.772 828.788 317.028 829.11 316.401C829.443 315.774 829.898 315.298 830.473 314.973C831.06 314.636 831.744 314.478 832.526 314.498C833.297 314.518 833.955 314.727 834.5 315.127C835.057 315.527 835.417 316.069 835.581 316.753L835.416 316.579L835.616 314.73L836.959 314.765C836.905 315.092 836.863 315.425 836.831 315.765C836.8 316.093 836.781 316.416 836.773 316.733L836.606 323.243C836.574 324.512 836.221 325.461 835.547 326.09C834.884 326.72 833.924 327.018 832.666 326.986ZM832.593 321.882C833.42 321.903 834.079 321.648 834.568 321.116C835.059 320.573 835.316 319.803 835.342 318.805C835.367 317.808 835.149 317.031 834.687 316.475C834.225 315.919 833.58 315.631 832.753 315.61C831.937 315.589 831.279 315.844 830.778 316.375C830.276 316.907 830.013 317.671 829.987 318.668C829.962 319.666 830.186 320.448 830.659 321.016C831.132 321.572 831.777 321.861 832.593 321.882ZM842.253 323.591C841.245 323.566 840.487 323.269 839.98 322.7C839.484 322.132 839.251 321.275 839.28 320.131L839.416 314.827L840.793 314.863L840.658 320.132C840.638 320.914 840.782 321.496 841.09 321.878C841.398 322.249 841.886 322.442 842.554 322.46C843.302 322.479 843.909 322.25 844.375 321.775C844.841 321.299 845.084 320.653 845.105 319.837L845.229 314.976L846.606 315.011L846.388 323.544L845.045 323.51L845.094 321.589L845.315 321.595C845.06 322.246 844.662 322.746 844.12 323.095C843.59 323.444 842.967 323.61 842.253 323.591ZM849.025 323.612L849.191 317.135C849.199 316.795 849.197 316.449 849.183 316.098C849.181 315.746 849.167 315.405 849.141 315.076L850.467 315.11L850.584 317.188L850.346 317.199C850.472 316.692 850.681 316.278 850.973 315.956C851.264 315.635 851.605 315.4 851.994 315.251C852.384 315.091 852.788 315.016 853.208 315.027C853.378 315.031 853.525 315.041 853.649 315.055C853.785 315.07 853.909 315.101 854.021 315.15L853.973 316.373C853.804 316.312 853.646 316.274 853.499 316.259C853.364 316.233 853.205 316.217 853.024 316.213C852.526 316.2 852.086 316.308 851.706 316.536C851.337 316.765 851.052 317.064 850.85 317.433C850.659 317.802 850.558 318.196 850.547 318.616L850.419 323.647L849.025 323.612ZM855.234 323.77L855.554 311.26L856.931 311.295L856.611 323.805L855.234 323.77ZM862.527 324.11C861.768 324.09 861.109 323.898 860.552 323.532C859.994 323.155 859.565 322.634 859.265 321.968C858.976 321.303 858.843 320.512 858.866 319.594C858.89 318.665 859.063 317.875 859.386 317.226C859.72 316.577 860.175 316.084 860.751 315.747C861.326 315.41 861.994 315.251 862.753 315.271C863.524 315.291 864.181 315.506 864.727 315.917C865.283 316.316 865.644 316.853 865.808 317.526L865.604 317.521L865.843 315.503L867.169 315.537C867.126 315.865 867.084 316.198 867.041 316.537C867.01 316.865 866.99 317.188 866.982 317.505L866.814 324.066L865.438 324.031L865.489 322.025L865.676 322.03C865.477 322.694 865.09 323.211 864.514 323.582C863.937 323.953 863.275 324.129 862.527 324.11ZM862.828 322.995C863.644 323.016 864.297 322.755 864.787 322.212C865.277 321.657 865.536 320.842 865.564 319.765C865.591 318.677 865.374 317.85 864.913 317.282C864.451 316.703 863.813 316.404 862.997 316.383C862.192 316.362 861.539 316.629 861.037 317.183C860.547 317.726 860.288 318.542 860.26 319.63C860.233 320.706 860.45 321.534 860.911 322.112C861.384 322.68 862.023 322.974 862.828 322.995Z" fill="black"/>
<path d="M369.032 169.575L366.104 166.494L365.915 160.809L366.685 156.82L368.175 150.845L373.91 148.653L382.54 150.878L389.782 155.072L399.456 155.653L410.619 150.259L426.969 137.982L428.133 131.664L433.902 128.136L442.035 123.667L452.102 121.92L462.289 115.499L466.74 111.269L468.846 107.314L467.579 104.609L465.061 98.5309L464.804 95.5175L465.592 90.8604L470.968 89.6615L474.734 86.0828L473.861 81.0491L477.969 77.1451L484.664 76.6481L487.746 73.7201L490.296 65.433L492.915 54.475L492.093 47.4381L497.28 40.5549L502.981 39.6984L512.347 39.2696L519.401 37.7795L525.41 37.9332L528.664 41.3572L531.883 46.1168L537.739 52.2801L548.731 53.5634L551.283 58.3059L554.451 65.0686L560.923 73.2523L567.43 80.1004L572.481 78.5591L575.683 83.9863L575.923 87.6675L579.176 91.0915L582.429 94.5156L583.371 96.8783L585.923 101.621L591.128 107.099L594.603 101.843L598.062 97.2539L603.952 102.082L606.88 105.163L610.801 108.604L616.109 110.077L617.308 115.453L613.473 121.702L615.528 132.78L620.083 137.573L619.57 144.576L620.016 153.274L627.635 155.807L634.21 159.984L632.155 161.937L628.047 165.841L625.924 170.464L620.393 164.643L613.219 157.777L605.959 154.251L602.877 157.179L601.422 161.819L600.447 173.821L595.996 178.051L588.121 185.533L584.971 191.132L587.899 194.214L591.751 200.326L587.985 203.905L584.835 209.504L585.058 213.853L585.863 221.557L586.394 226.916L592.576 233.422L589.152 236.675L585.642 243.267L581.533 247.171L577.767 250.75L576.295 256.058L578.521 260.458L584.377 266.621L581.638 269.224L577.306 268.779L573.984 268.026L575.2 272.734L570.8 274.96L565.595 269.482L550.784 260.751L540.596 254.143L527.446 245.789L524.484 244.042L518.902 240.225L510.923 238.684L505.342 234.867L498.835 228.019L496.13 229.286L491.13 228.824L489.247 224.098L485.017 219.647L480.001 219.853L475.207 224.408L472.228 223.329L470.652 219.614L469.504 212.235L466.662 205.814L468.476 200.181L475.513 199.359L474.331 193.315L469.777 188.521L468.305 193.829L462.826 199.035L464.059 203.075L456.834 211.243L451.629 205.764L445.379 201.929L442.708 201.861L438.804 197.752L432.623 191.247L428.24 192.805L422.607 190.99L415.655 188.474L408.823 181.284L406.769 183.236L400.776 182.414L394.201 178.237L386.65 173.033L382.302 173.256L380.881 176.56L372.747 168L369.032 169.575Z" fill="#B2ECE1" stroke="black" stroke-width="0.188928"/>
<path d="M472.961 148.847L473.268 136.863L477.415 136.969C478.764 137.004 479.897 137.265 480.814 137.754C481.743 138.242 482.434 138.94 482.887 139.848C483.351 140.744 483.567 141.833 483.535 143.113C483.502 144.382 483.231 145.458 482.721 146.341C482.222 147.224 481.496 147.891 480.543 148.343C479.602 148.784 478.457 148.987 477.109 148.953L472.961 148.847ZM474.767 147.413L477.045 147.472C478.586 147.511 479.74 147.166 480.507 146.437C481.285 145.709 481.694 144.585 481.733 143.067C481.772 141.548 481.421 140.411 480.68 139.655C479.952 138.888 478.817 138.485 477.276 138.446L474.998 138.387L474.767 147.413ZM489.58 149.425C488.197 149.39 487.12 148.971 486.346 148.169C485.573 147.366 485.204 146.274 485.239 144.892C485.262 143.996 485.452 143.219 485.809 142.559C486.178 141.899 486.673 141.396 487.294 141.049C487.927 140.691 488.651 140.522 489.467 140.543C490.271 140.564 490.941 140.751 491.477 141.105C492.012 141.459 492.413 141.951 492.68 142.581C492.948 143.201 493.071 143.929 493.05 144.768L493.036 145.312L486.577 145.147L486.602 144.161L491.888 144.296L491.594 144.51C491.615 143.66 491.439 142.998 491.066 142.523C490.704 142.038 490.166 141.786 489.453 141.768C488.659 141.747 488.04 142.009 487.595 142.554C487.151 143.086 486.916 143.835 486.892 144.798L486.887 144.968C486.862 145.976 487.086 146.742 487.56 147.264C488.046 147.787 488.742 148.06 489.648 148.083C490.147 148.096 490.613 148.04 491.047 147.915C491.493 147.779 491.918 147.551 492.323 147.233L492.854 148.42C492.449 148.761 491.96 149.021 491.389 149.199C490.817 149.366 490.215 149.441 489.58 149.425ZM497.302 149.469L493.849 140.808L495.685 140.855L498.392 148.085L497.899 148.073L501.023 140.992L502.773 141.037L498.866 149.509L497.302 149.469ZM507.528 153.541C506.757 153.521 506.057 153.412 505.427 153.215C504.808 153.018 504.254 152.731 503.765 152.356L504.222 151.109C504.567 151.356 504.908 151.552 505.245 151.696C505.581 151.852 505.935 151.969 506.307 152.047C506.68 152.124 507.064 152.168 507.461 152.178C508.276 152.199 508.894 152.005 509.312 151.596C509.742 151.199 509.967 150.609 509.987 149.828L510.046 147.533L510.216 147.537C510.018 148.167 509.631 148.662 509.055 149.021C508.491 149.37 507.84 149.535 507.103 149.516C506.322 149.496 505.646 149.308 505.077 148.954C504.519 148.588 504.09 148.084 503.789 147.441C503.499 146.787 503.366 146.024 503.388 145.151C503.41 144.279 503.583 143.529 503.905 142.902C504.238 142.276 504.693 141.8 505.268 141.475C505.855 141.138 506.539 140.98 507.321 141C508.069 141.019 508.71 141.222 509.245 141.61C509.791 141.987 510.146 142.495 510.311 143.134L510.162 142.994L510.36 141.23L512.026 141.273C511.971 141.623 511.928 141.974 511.897 142.324C511.865 142.664 511.845 142.998 511.837 143.326L511.675 149.667C511.642 150.958 511.271 151.935 510.563 152.598C509.865 153.26 508.854 153.575 507.528 153.541ZM507.546 148.183C508.294 148.202 508.895 147.963 509.35 147.464C509.816 146.966 510.061 146.252 510.085 145.323C510.109 144.393 509.901 143.674 509.46 143.164C509.031 142.654 508.442 142.389 507.694 142.37C506.924 142.35 506.305 142.584 505.839 143.071C505.385 143.558 505.146 144.267 505.122 145.196C505.098 146.125 505.301 146.85 505.729 147.371C506.17 147.893 506.775 148.164 507.546 148.183ZM517.451 150.137C516.692 150.118 516.034 149.925 515.476 149.56C514.918 149.194 514.489 148.673 514.189 147.996C513.9 147.32 513.768 146.522 513.791 145.604C513.815 144.675 513.988 143.886 514.311 143.237C514.645 142.587 515.1 142.094 515.675 141.758C516.251 141.409 516.919 141.245 517.678 141.264C518.426 141.284 519.073 141.487 519.618 141.875C520.164 142.264 520.519 142.783 520.684 143.433L520.497 143.429L520.717 141.495L522.383 141.538C522.34 141.888 522.297 142.239 522.254 142.589C522.222 142.928 522.202 143.262 522.194 143.591L522.028 150.101L520.311 150.057L520.359 148.154L520.546 148.158C520.349 148.788 519.962 149.283 519.386 149.643C518.821 149.991 518.176 150.156 517.451 150.137ZM517.91 148.805C518.647 148.824 519.243 148.579 519.698 148.069C520.165 147.559 520.411 146.794 520.437 145.774C520.463 144.755 520.256 143.984 519.816 143.462C519.387 142.93 518.805 142.654 518.068 142.635C517.32 142.616 516.713 142.861 516.246 143.371C515.791 143.87 515.551 144.629 515.525 145.649C515.499 146.669 515.7 147.445 516.129 147.977C516.557 148.51 517.151 148.786 517.91 148.805ZM527.809 150.402C527.061 150.383 526.403 150.191 525.834 149.824C525.276 149.459 524.848 148.937 524.547 148.261C524.258 147.584 524.126 146.787 524.149 145.869C524.173 144.94 524.346 144.151 524.669 143.501C525.003 142.852 525.458 142.359 526.033 142.022C526.621 141.675 527.288 141.51 528.036 141.529C528.773 141.548 529.414 141.752 529.96 142.14C530.517 142.517 530.878 143.025 531.043 143.664L530.839 143.659L530.989 137.812L532.706 137.856L532.386 150.366L530.686 150.323L530.735 148.385L530.939 148.39C530.73 149.031 530.343 149.532 529.778 149.891C529.214 150.251 528.557 150.421 527.809 150.402ZM528.269 149.07C529.005 149.089 529.607 148.844 530.073 148.334C530.54 147.824 530.786 147.06 530.812 146.04C530.838 145.02 530.631 144.249 530.191 143.728C529.751 143.195 529.163 142.919 528.426 142.9C527.678 142.881 527.071 143.126 526.605 143.636C526.15 144.134 525.909 144.894 525.883 145.914C525.857 146.933 526.058 147.71 526.487 148.242C526.927 148.775 527.521 149.051 528.269 149.07Z" fill="black"/>
<path d="M592.135 280.165L574.687 270.03L581.193 263.849L574.036 256.316L575.918 248.012L576.74 242.019L589.409 229.982L581.207 224.092L584.032 218.151L581.36 205.053L587.523 199.197L586.393 191.15L579.801 187.641L579.235 183.617L589.046 178.857L596.698 167.025L599.436 151.393L611.644 157.384L621.73 167.999L627.019 157.109L634.091 154.952L641.504 152.468L648.216 151.304L652.513 153.084L654.721 145.122L657.649 148.204L666.039 146.748L675.764 145.326L686.173 143.254L686.003 149.931L684.103 158.903L682.888 167.224L693.949 178.866L701.02 176.708L701.5 184.07L709.308 192.288L709.378 202.646L704.173 210.197L712.7 216.429L726.055 216.77L721.603 207.97L726.396 203.416L738.382 205.058L746.19 213.276L751.652 221.768L747.543 225.672L748.674 233.719L742.75 230.227L743.212 238.257L743.282 248.615L741.142 253.906L737.958 260.84L740.886 263.922L744.704 271.37L745.201 278.064L740.75 282.294L730.323 285.034L725.872 289.263L725.342 296.934L718.836 303.115L705.14 316.128L699.457 329.347L692.661 346.88L679.647 333.183L662.474 325.394L653.844 323.169L646.996 329.676L642.767 325.225L643.263 318.89L640.01 315.466L633.007 314.952L634.153 309.302L613.161 294.066L592.135 280.165Z" fill="#D9BBF9" stroke="black" stroke-width="0.188928"/>
<path d="M619.714 239.928L620.02 227.944L621.244 227.975L625.777 238.96L625.284 238.947L630.372 228.209L631.596 228.24L631.29 240.224L629.998 240.191L630.258 230.026L630.768 230.039L625.969 240.088L625.034 240.064L620.739 229.782L621.249 229.795L620.989 239.96L619.714 239.928ZM637.378 240.532C636.619 240.513 635.96 240.32 635.403 239.955C634.845 239.577 634.416 239.056 634.116 238.391C633.827 237.726 633.694 236.934 633.717 236.016C633.741 235.087 633.914 234.298 634.237 233.648C634.571 232.999 635.026 232.506 635.602 232.169C636.177 231.833 636.845 231.674 637.604 231.693C638.374 231.713 639.032 231.928 639.577 232.339C640.134 232.739 640.495 233.275 640.659 233.949L640.455 233.943L640.693 231.925L642.019 231.959C641.977 232.287 641.934 232.621 641.892 232.96C641.861 233.288 641.841 233.61 641.833 233.928L641.665 240.489L640.288 240.454L640.34 238.448L640.527 238.453C640.328 239.117 639.941 239.634 639.364 240.005C638.788 240.376 638.126 240.551 637.378 240.532ZM637.678 239.417C638.494 239.438 639.147 239.177 639.637 238.634C640.128 238.08 640.387 237.264 640.414 236.188C640.442 235.1 640.225 234.272 639.764 233.705C639.302 233.126 638.663 232.826 637.847 232.805C637.043 232.785 636.39 233.051 635.888 233.606C635.398 234.149 635.139 234.964 635.111 236.052C635.084 237.129 635.301 237.956 635.762 238.535C636.235 239.103 636.874 239.397 637.678 239.417ZM644.327 240.557L644.647 228.046L646.024 228.082L645.704 240.592L644.327 240.557ZM650.893 240.725L647.457 232.098L648.953 232.137L651.82 239.728L651.361 239.716L654.647 232.282L656.075 232.319L652.202 240.758L650.893 240.725ZM660.484 241.123C659.725 241.104 659.067 240.911 658.509 240.545C657.952 240.168 657.523 239.647 657.222 238.982C656.933 238.316 656.8 237.525 656.824 236.607C656.848 235.678 657.021 234.889 657.344 234.239C657.678 233.59 658.133 233.097 658.708 232.76C659.284 232.423 659.951 232.265 660.71 232.284C661.481 232.304 662.139 232.519 662.684 232.93C663.241 233.33 663.601 233.866 663.765 234.539L663.561 234.534L663.8 232.516L665.126 232.55C665.083 232.878 665.041 233.211 664.998 233.55C664.967 233.878 664.948 234.201 664.939 234.518L664.772 241.08L663.395 241.044L663.446 239.039L663.633 239.043C663.435 239.707 663.047 240.225 662.471 240.596C661.894 240.966 661.232 241.142 660.484 241.123ZM660.785 240.008C661.601 240.029 662.254 239.768 662.744 239.225C663.234 238.67 663.493 237.855 663.521 236.778C663.549 235.69 663.332 234.863 662.87 234.295C662.409 233.717 661.77 233.417 660.954 233.396C660.149 233.375 659.496 233.642 658.995 234.196C658.504 234.739 658.245 235.555 658.218 236.643C658.19 237.719 658.407 238.547 658.869 239.126C659.342 239.693 659.98 239.988 660.785 240.008ZM667.434 241.148L667.602 234.586C667.61 234.269 667.601 233.946 667.575 233.616C667.561 233.276 667.542 232.941 667.516 232.611L668.842 232.645L668.964 234.519L668.76 234.514C669.026 233.863 669.435 233.375 669.988 233.049C670.552 232.712 671.197 232.552 671.922 232.571C672.931 232.597 673.683 232.888 674.179 233.445C674.687 233.991 674.926 234.842 674.896 235.998L674.76 241.335L673.383 241.3L673.517 236.047C673.538 235.243 673.388 234.655 673.069 234.284C672.761 233.902 672.268 233.702 671.588 233.685C670.794 233.665 670.159 233.892 669.682 234.367C669.205 234.843 668.956 235.489 668.935 236.304L668.811 241.183L667.434 241.148Z" fill="black"/>
</svg>
