<svg width="25" height="23" viewBox="0 0 25 23" xmlns="http://www.w3.org/2000/svg">
<path d="M18.3556 11.9036L13.5404 3.73281C13.4337 3.55166 13.2815 3.40152 13.0989 3.2972C12.9164 3.19289 12.7097 3.13802 12.4995 3.13802C12.2892 3.13802 12.0826 3.19289 11.9 3.2972C11.7174 3.40152 11.5652 3.55166 11.4585 3.73281L9.00798 7.8931C9.25206 10.2844 10.1474 11.2559 11.8923 11.2559C14.315 11.2559 16.5033 11.4686 18.3569 11.9036H18.3556ZM20.2346 15.0899C18.3653 14.1631 15.4291 13.6726 11.8911 13.6726C9.6931 13.6726 8.13314 12.6672 7.28369 10.8161L2.96994 18.1361C2.86167 18.3197 2.80388 18.5287 2.80244 18.7418C2.80099 18.9549 2.85594 19.1646 2.9617 19.3496C3.06746 19.5347 3.22028 19.6884 3.40466 19.7953C3.58903 19.9022 3.7984 19.9584 4.01152 19.9583H20.9886C21.2016 19.9582 21.4108 19.9018 21.595 19.7949C21.7792 19.6879 21.9319 19.5341 22.0375 19.3491C22.1431 19.1641 22.198 18.9545 22.1965 18.7415C22.195 18.5285 22.1372 18.3196 22.029 18.1361L20.2346 15.0911V15.0899ZM15.6224 2.50514L24.1109 16.9085C24.4356 17.459 24.609 18.0856 24.6134 18.7248C24.6179 19.3639 24.4532 19.9929 24.1362 20.5479C23.8192 21.1029 23.3611 21.5642 22.8083 21.8851C22.2556 22.206 21.6278 22.375 20.9886 22.375H4.01152C3.37244 22.375 2.74469 22.2062 2.19191 21.8854C1.63913 21.5647 1.18097 21.1036 0.863855 20.5487C0.546742 19.9938 0.381952 19.365 0.386188 18.7259C0.390424 18.0869 0.563536 17.4603 0.887977 16.9097L9.37652 2.50635C9.69674 1.96264 10.1533 1.51193 10.7012 1.19879C11.249 0.885659 11.8691 0.720947 12.5001 0.720947C13.1311 0.720947 13.7511 0.885659 14.299 1.19879C14.8468 1.51193 15.3034 1.96264 15.6236 2.50635L15.6224 2.50514Z" fill="white"/>
</svg>
