<svg width="25" height="25" viewBox="0 0 25 25" xmlns="http://www.w3.org/2000/svg">
<path d="M10.3946 3.91196C11.4318 2.11538 13.1401 0.804386 15.1438 0.267376C17.1476 -0.269634 19.2825 0.0113294 21.0791 1.04846C22.8757 2.08559 24.1867 3.79393 24.7237 5.79766C25.2607 7.80139 24.9798 9.93638 23.9426 11.733L23.6471 12.243C23.5477 12.4152 23.3839 12.5409 23.1917 12.5924C22.9996 12.6439 22.7949 12.6169 22.6226 12.5175L17.4251 9.51746L14.5286 14.5875C16.5386 15.198 18.2666 16.5855 19.5011 18.3795C18.9572 18.3436 18.4187 18.5067 17.9861 18.8385C16.5461 16.9605 14.4821 15.75 12.2501 15.75C10.0181 15.75 7.95412 16.9605 6.51412 18.84C6.08173 18.5077 5.54327 18.344 4.99912 18.3795C6.67912 15.9375 9.26962 14.25 12.2501 14.25C12.4946 14.25 12.7361 14.262 12.9746 14.283L16.1261 8.76746L10.3751 5.44496C10.2029 5.3455 10.0772 5.18169 10.0257 4.98956C9.97422 4.79743 10.0012 4.59272 10.1006 4.42046L10.3946 3.91046V3.91196ZM11.7761 4.52396L14.3306 5.99846C14.336 5.98987 14.3415 5.98137 14.3471 5.97296C15.1511 4.86296 15.9071 4.00946 16.8956 3.26096C17.634 2.71516 18.4249 2.24434 19.2566 1.85546C17.8925 1.37867 16.4063 1.38343 15.0452 1.86894C13.6842 2.35446 12.5305 3.29145 11.7761 4.52396V4.52396ZM19.0061 8.69696C19.7036 7.47296 20.0381 6.50696 20.1551 5.56946C20.2496 4.81496 20.2076 4.04696 20.0666 3.13046C19.1231 3.57746 18.4076 3.99746 17.8016 4.45646C16.9976 5.06546 16.3571 5.76596 15.6356 6.75146L19.0061 8.69696V8.69696ZM20.3051 9.44696L22.7216 10.842C23.3766 9.63716 23.6223 8.2521 23.4215 6.89553C23.2208 5.53896 22.5845 4.2844 21.6086 3.32096C21.7151 4.16096 21.7436 4.95296 21.6431 5.75546C21.4946 6.94196 21.0731 8.09996 20.3051 9.44696V9.44696ZM5.85712 20.3895C5.80572 20.2352 5.70555 20.1017 5.57171 20.0093C5.43788 19.9169 5.27763 19.8705 5.11512 19.8771C4.95261 19.8837 4.79665 19.943 4.67075 20.0459C4.54485 20.1489 4.45584 20.29 4.41712 20.448C4.16212 21.489 3.67912 22.0605 3.12862 22.392C2.55262 22.74 1.81912 22.875 1.00012 22.875C0.80121 22.875 0.610444 22.954 0.469792 23.0946C0.32914 23.2353 0.250122 23.426 0.250122 23.625C0.250122 23.8239 0.32914 24.0146 0.469792 24.1553C0.610444 24.2959 0.80121 24.375 1.00012 24.375C1.95712 24.375 2.99962 24.222 3.90412 23.6775C4.44329 23.3517 4.89769 22.903 5.23012 22.368C7.01962 24.6495 10.5131 24.639 12.2501 22.344C14.0156 24.675 17.5901 24.6495 19.3526 22.2585C19.8313 22.9099 20.4556 23.4405 21.1757 23.8079C21.8958 24.1754 22.6917 24.3696 23.5001 24.375C23.699 24.375 23.8898 24.2959 24.0305 24.1553C24.1711 24.0146 24.2501 23.8239 24.2501 23.625C24.2501 23.426 24.1711 23.2353 24.0305 23.0946C23.8898 22.954 23.699 22.875 23.5001 22.875C22.0256 22.875 20.5556 21.915 20.0696 20.397C20.0211 20.2466 19.9264 20.1155 19.7989 20.0222C19.6714 19.9289 19.5178 19.8782 19.3598 19.8774C19.2019 19.8765 19.0477 19.9256 18.9193 20.0176C18.7908 20.1095 18.6947 20.2397 18.6446 20.3895C17.6801 23.298 13.9046 23.2605 12.9596 20.5095C12.9089 20.3616 12.8133 20.2332 12.6861 20.1423C12.5589 20.0514 12.4065 20.0026 12.2501 20.0026C12.0938 20.0026 11.9414 20.0514 11.8141 20.1423C11.6869 20.2332 11.5913 20.3616 11.5406 20.5095C10.5956 23.2605 6.82012 23.298 5.85562 20.3895H5.85712Z" />
</svg>
