<svg width="18" height="26" viewBox="0 0 18 26" xmlns="http://www.w3.org/2000/svg">
<path d="M16.5001 10.5L12.7501 12.375L7.75012 8.625L6.50012 15.5L10.8751 19.25L11.5001 24.875M16.5001 8.625V24.875M6.50012 19.25L4.00012 24.875M4.62512 8.625C2.75012 9.875 1.50012 13 1.50012 13L4.00012 14.25M9.00012 6.125C9.66316 6.125 10.299 5.86161 10.7679 5.39277C11.2367 4.92393 11.5001 4.28804 11.5001 3.625C11.5001 2.96196 11.2367 2.32607 10.7679 1.85723C10.299 1.38839 9.66316 1.125 9.00012 1.125C8.33708 1.125 7.7012 1.38839 7.23236 1.85723C6.76351 2.32607 6.50012 2.96196 6.50012 3.625C6.50012 4.28804 6.76351 4.92393 7.23236 5.39277C7.7012 5.86161 8.33708 6.125 9.00012 6.125Z" stroke-width="1.875" stroke-linecap="round" stroke-linejoin="round"/>
</svg>
