<svg width="20" height="22" viewBox="0 0 20 22" fill="none" xmlns="http://www.w3.org/2000/svg">
<path fill-rule="evenodd" clip-rule="evenodd" d="M3.75012 2.85317V1.55247H16.2501V2.85317H3.75012ZM3.75012 4.15387H3.12512C2.95936 4.15387 2.80039 4.08535 2.68318 3.96339C2.56597 3.84142 2.50012 3.676 2.50012 3.50352V0.90212C2.50012 0.729636 2.56597 0.564217 2.68318 0.442253C2.80039 0.320288 2.95936 0.25177 3.12512 0.25177H16.8751C17.0409 0.25177 17.1999 0.320288 17.3171 0.442253C17.4343 0.564217 17.5001 0.729636 17.5001 0.90212V3.50352C17.5001 3.676 17.4343 3.84142 17.3171 3.96339C17.1999 4.08535 17.0409 4.15387 16.8751 4.15387H16.2501V5.45457H17.5001C17.6659 5.45457 17.8249 5.52309 17.9421 5.64505C18.0593 5.76702 18.1251 5.93244 18.1251 6.10492V8.70632C18.1251 8.8788 18.0593 9.04422 17.9421 9.16619C17.8249 9.28815 17.6659 9.35667 17.5001 9.35667V10.6574H18.7501C18.9159 10.6574 19.0749 10.7259 19.1921 10.8479C19.3093 10.9698 19.3751 11.1352 19.3751 11.3077V13.9091C19.3751 14.0816 19.3093 14.247 19.1921 14.369C19.0749 14.4909 18.9159 14.5595 18.7501 14.5595H18.1251V17.1609H16.8751V14.5595H3.12512V17.1609H1.87512V14.5595H1.25012C1.08436 14.5595 0.925391 14.4909 0.80818 14.369C0.69097 14.247 0.625122 14.0816 0.625122 13.9091V11.3077C0.625122 11.1352 0.69097 10.9698 0.80818 10.8479C0.925391 10.7259 1.08436 10.6574 1.25012 10.6574H2.50012V9.35667C2.33436 9.35667 2.17539 9.28815 2.05818 9.16619C1.94097 9.04422 1.87512 8.8788 1.87512 8.70632V6.10492C1.87512 5.93244 1.94097 5.76702 2.05818 5.64505C2.17539 5.52309 2.33436 5.45457 2.50012 5.45457H3.75012V4.15387ZM18.1251 11.9581V13.2588H1.87512V11.9581H18.1251ZM5.00012 5.45457H15.0001V4.15387H5.00012V5.45457ZM3.12512 6.75527V8.05597H16.8751V6.75527H3.12512ZM16.2501 9.35667H3.75012V10.6574H16.2501V9.35667ZM12.5001 15.8602H7.50012V21.063H12.5001V15.8602Z" />
</svg>
